<svg xmlns="http://www.w3.org/2000/svg" viewBox="-6 -6 318 84" role="img" aria-label="华山论剑">
  <title>华山论剑</title>
  <!-- Traced from the official wordmark with scripts/wordmark-trace; the three ink
       layers below use colours measured off the source, not eyeballed:
       body #fefefc (flat, no gradient), gold rim mid-tone #d4be7c, extrude #8d867f
       displaced by +4,+4 in these viewBox units. -->
  <defs>
    <linearGradient id="hs-wordmark-rim" x1="0" y1="0" x2="0" y2="1">
      <stop offset="0" stop-color="#b8904c"/>
      <stop offset=".18" stop-color="#dbc884"/>
      <stop offset="1" stop-color="#cbb06c"/>
    </linearGradient>
    <path id="hs-wordmark-glyphs" fill-rule="evenodd" d="M107.25 0.00L117.50 0.25L117.50 60.00L118.75 61.00L133.50 61.25L135.00 60.25L135.25 5.25L145.50 5.25L145.50 59.25L136.75 68.00L78.25 68.00L78.25 5.25L89.25 5.25L89.25 60.00L92.75 61.25L105.00 61.25L107.00 60.00L107.25 0.00Z M9.75 1.25L20.75 1.75L17.25 7.00L17.00 9.25L17.00 41.50L6.00 44.75L6.00 17.75L3.25 15.75L3.25 12.00L9.75 1.25Z M30.25 1.25L41.25 1.25L41.75 14.00L43.75 14.00L54.25 5.25L66.00 5.25L43.50 24.75L42.25 24.75L41.50 26.50L42.00 35.00L69.00 35.25L66.00 41.75L30.00 42.00L30.00 30.75L28.50 29.50L24.25 29.25L30.25 24.50L30.25 1.25Z M165.00 1.25L168.50 1.25L173.25 4.50L173.25 8.50L169.50 12.75L164.25 13.00L160.25 9.75L161.25 4.50L165.00 1.25Z M194.00 1.25L210.50 1.25L220.50 16.00L222.50 20.75L210.25 20.75L202.50 9.00L201.00 8.75L192.25 20.75L180.25 21.00L194.00 1.25Z M247.00 1.25L260.25 1.25L275.00 20.50L263.25 21.00L253.00 9.50L243.50 21.25L233.00 21.25L247.00 1.25Z M293.25 1.25L301.75 1.25L301.75 60.50L292.75 69.75L283.00 69.75L282.75 63.25L291.50 63.25L293.25 61.00L293.25 1.25Z M279.25 4.25L288.25 4.25L288.25 50.50L280.00 55.00L279.00 52.25L279.25 4.25Z M156.00 22.25L172.75 22.25L172.75 61.50L178.25 63.00L175.25 70.00L162.75 69.25L162.75 34.00L161.50 29.50L156.00 29.00L156.00 22.25Z M185.25 27.25L195.75 27.25L196.50 40.00L198.00 40.00L210.00 28.25L221.50 28.25L197.75 51.75L195.75 55.25L195.75 61.00L197.25 63.25L222.00 63.25L219.50 69.75L185.25 70.00L185.25 27.25Z M233.75 27.25L274.25 28.00L270.75 33.00L236.00 33.00L233.75 32.50L233.75 27.25Z M233.50 40.25L242.25 40.25L244.75 54.00L236.00 54.00L233.50 40.25Z M246.75 40.25L255.50 40.25L258.00 53.75L249.25 54.25L246.75 40.25Z M265.25 40.25L273.25 40.25L270.25 54.00L262.25 54.00L265.25 40.25Z M32.25 46.00L39.25 46.00L39.50 50.50L40.75 52.00L68.75 52.75L66.25 58.00L64.50 59.00L40.00 58.75L39.50 65.75L29.75 70.00L28.75 69.50L28.25 60.75L26.50 58.75L0.00 59.00L0.00 52.25L27.50 52.25L28.75 50.25L28.75 46.25L32.25 46.00Z M234.00 62.25L273.25 62.75L269.75 68.25L234.50 68.75L234.00 62.25Z"/>
  </defs>
  <use href="#hs-wordmark-glyphs" x="4" y="4" fill="#8d867f" stroke="#5f574f" stroke-width="2.2" paint-order="stroke"/>
  <use href="#hs-wordmark-glyphs" fill="#463a2c" stroke="#463a2c" stroke-width="5.2" paint-order="stroke"/>
  <use href="#hs-wordmark-glyphs" fill="url(#hs-wordmark-rim)" stroke="url(#hs-wordmark-rim)" stroke-width="3.2" paint-order="stroke"/>
  <use href="#hs-wordmark-glyphs" fill="#fefefc"/>
</svg>
